<?xml version="1.0" encoding="UTF-8"?>
<svg version="1.1" xmlns="http://www.w3.org/2000/svg" width="512" height="512">
<path d="M0 0 C6.34088486 3.70665847 10.74289639 8.67461034 13.03125 15.703125 C14.77054482 23.99376366 13.73846211 31.51684837 9.41015625 38.76171875 C8.48053285 40.18096587 7.495851 41.56391242 6.5 42.9375 C6.92152344 43.54078125 7.34304688 44.1440625 7.77734375 44.765625 C8.59912109 45.96445313 8.59912109 45.96445313 9.4375 47.1875 C9.98277344 47.97640625 10.52804687 48.7653125 11.08984375 49.578125 C14.41086178 55.13462054 14.21020028 61.64605187 13.5 67.9375 C11.78589235 72.68967158 9.29115628 76.75076557 6.5 80.9375 C6.92152344 81.54078125 7.34304688 82.1440625 7.77734375 82.765625 C8.32519531 83.56484375 8.87304688 84.3640625 9.4375 85.1875 C9.98277344 85.97640625 10.52804687 86.7653125 11.08984375 87.578125 C13.50586562 91.62044414 13.65755423 95.08444939 13.6875 99.75 C13.70167969 100.74644531 13.71585938 101.74289063 13.73046875 102.76953125 C13.4639252 106.43337558 12.60944628 109.44252495 11.5 112.9375 C12.04712646 113.10765625 12.59425293 113.2778125 13.15795898 113.453125 C47.23206121 124.1553177 79.45500109 142.47072712 96.7578125 175.078125 C103.57709389 188.59477711 107.64132269 202.61952206 107.66796875 217.86328125 C107.67220352 218.60416992 107.67643829 219.34505859 107.68080139 220.10839844 C107.69062915 222.48899088 107.69073408 224.86939099 107.6875 227.25 C107.68689575 228.06085052 107.6862915 228.87170105 107.68566895 229.7071228 C107.63034792 256.93754687 105.14597766 282.63511047 85.40625 303.05859375 C84.46265625 303.98865234 84.46265625 303.98865234 83.5 304.9375 C86.43274781 308.9767424 89.39015029 312.8617544 92.8125 316.5 C105.98330917 331.33541255 113.68491434 349.98758616 112.6953125 369.75488281 C111.7856363 379.92051436 106.60472229 389.13599966 99.4375 396.25 C91.71953062 402.32260008 82.25386177 403.49644229 72.765625 402.58984375 C68.53671733 401.74507392 64.55692314 400.38324606 60.5 398.9375 C60.58564209 399.60168945 60.67128418 400.26587891 60.75952148 400.95019531 C61.15491172 404.02895306 61.54621999 407.10821729 61.9375 410.1875 C62.07220703 411.23164063 62.20691406 412.27578125 62.34570312 413.3515625 C64.04347544 426.76810469 64.73858539 439.98440352 64.79516602 453.50024414 C64.80671166 455.4150327 64.82720405 457.32978843 64.85668945 459.24438477 C65.10437909 475.40509545 64.361959 488.60794812 52.6875 500.8359375 C44.6971495 508.47187729 36.55914619 510.56599893 25.75585938 510.40380859 C15.55260732 509.96166767 9.34806037 506.36185881 1.82421875 499.546875 C-3.99987484 493.00822876 -6.8952427 485.89104087 -9.5625 477.625 C-9.90611572 476.57626709 -10.24973145 475.52753418 -10.60375977 474.44702148 C-15.8394472 458.061742 -18.69771156 442.13840573 -18.5 424.9375 C-25.76 424.9375 -33.02 424.9375 -40.5 424.9375 C-40.438125 426.505 -40.37625 428.0725 -40.3125 429.6875 C-40.3655978 452.28061476 -45.64383773 484.39383773 -62.234375 500.984375 C-71.75674425 509.19331401 -81.20301406 510.78343953 -93.49853516 510.11962891 C-102.82629791 509.27082298 -109.31384636 503.56394927 -115.5 496.9375 C-124.69533312 485.80630727 -123.9892166 471.75651571 -123.875 458.125 C-123.87200897 457.20407562 -123.86901794 456.28315125 -123.86593628 455.33432007 C-123.79379486 436.35578382 -122.29904573 417.71556405 -119.5 398.9375 C-120.716875 399.411875 -121.93375 399.88625 -123.1875 400.375 C-133.99992762 403.89453825 -144.12457299 403.79551446 -154.5 398.9375 C-164.19175871 392.87833451 -168.94582639 382.80140587 -171.5 371.9375 C-173.73579471 351.06925376 -165.34094109 333.83487309 -152.75390625 317.6796875 C-149.44974003 313.65971404 -146.0369589 309.75394612 -142.5 305.9375 C-143.345625 304.98875 -144.19125 304.04 -145.0625 303.0625 C-163.4407286 281.44105459 -166.61432947 257.55009139 -166.79653931 230.19848633 C-166.80700799 228.63350849 -166.82181213 227.06855237 -166.84140015 225.50366211 C-167.17156502 194.9792015 -156.18500369 169.66653801 -134.875 147.8125 C-118.85547171 131.88517675 -95.09801806 117.52232616 -72.5 113.9375 C-72.37044922 113.1021875 -72.37044922 113.1021875 -72.23828125 112.25 C-71.1319992 106.24156904 -69.03886626 101.89461419 -65.5 96.9375 C-66.28375 96.07125 -67.0675 95.205 -67.875 94.3125 C-73.11724229 87.89706468 -73.18514159 80.9483863 -72.5 72.9375 C-71.27924839 67.5911426 -68.69087559 63.33870771 -65.5 58.9375 C-66.098125 58.256875 -66.69625 57.57625 -67.3125 56.875 C-72.75108792 49.57175337 -73.62314124 42.94402308 -72.5 33.9375 C-69.81381168 25.22231124 -64.20412527 19.75643102 -56.26464844 15.52807617 C-54.71805013 14.7518407 -53.16602842 13.98633778 -51.609375 13.23046875 C-50.78294495 12.81960526 -49.95651489 12.40874176 -49.1050415 11.98542786 C-46.49126538 10.68912232 -43.87074865 9.40713974 -41.25 8.125 C-39.4761248 7.24632579 -37.70268287 6.36677631 -35.9296875 5.48632812 C-32.69485349 3.88582025 -29.45986517 2.28571267 -26.21777344 0.69995117 C-25.57048279 0.38273605 -24.92319214 0.06552094 -24.25628662 -0.26130676 C-16.85057674 -3.63968738 -7.34063455 -3.40775272 0 0 Z " fill="#010001" transform="translate(285.5,2.0625)"/>
<path d="M0 0 C1.19496094 -0.01224609 2.38992188 -0.02449219 3.62109375 -0.03710938 C11.73022139 -0.05028781 19.40056028 0.75772889 27.375 2.1875 C28.633125 2.37570313 29.89125 2.56390625 31.1875 2.7578125 C52.84582266 6.52678532 74.15716923 16.27642969 90.375 31.1875 C90.89690918 31.66171387 91.41881836 32.13592773 91.95654297 32.62451172 C106.75642856 46.20880096 119.04121464 63.86220727 120.54345703 84.50198364 C120.76491128 89.80055199 120.75925578 95.09628007 120.71118164 100.3984375 C120.68754172 103.18258654 120.69064819 105.96577545 120.69726562 108.75 C120.66538887 129.26515129 118.54699228 148.9510604 104.3125 164.875 C86.34473642 181.59945851 59.05181504 184.99832799 35.66967773 186.98242188 C34.11790822 187.12110539 32.56777152 187.27920959 31.01977539 187.45507812 C22.00380357 188.42837856 12.99384255 188.34374812 3.9375 188.3125 C2.66403214 188.30917664 2.66403214 188.30917664 1.36483765 188.30578613 C-77.29046827 188.06470276 -77.29046827 188.06470276 -102.4765625 163.58984375 C-116.91649643 147.44337218 -117.98973894 126.62025363 -117.94067383 105.9765625 C-117.93750548 103.19231258 -117.96108478 100.4091201 -117.98632812 97.625 C-118.03430032 84.67366119 -117.14542378 72.70811084 -110.9375 61.0625 C-110.58574707 60.38783691 -110.23399414 59.71317383 -109.87158203 59.01806641 C-95.23084663 31.59853652 -69.16990974 14.46231355 -40.0390625 5.4375 C-33.65213139 3.56542015 -27.19220251 2.25765375 -20.625 1.1875 C-19.61050781 1.001875 -18.59601563 0.81625 -17.55078125 0.625 C-11.70147629 -0.02686284 -5.88095344 0.00311162 0 0 Z " fill="#FDDEB1" transform="translate(254.625,127.8125)"/>
<path d="M0 0 C4.46709428 14.30830707 7.2454908 28.02144567 7.375 43.0625 C7.38885742 44.02599365 7.40271484 44.9894873 7.41699219 45.98217773 C7.36258214 54.20167526 5.92594528 60.96935604 0 67 C-20.04723744 80.96430259 -41.96168592 83.50801141 -65.68920898 83.33618164 C-69.19082536 83.31247749 -72.69168235 83.31565453 -76.19335938 83.32226562 C-78.45573363 83.31669029 -80.71810474 83.30958133 -82.98046875 83.30078125 C-84.00891403 83.30169266 -85.03735931 83.30260406 -86.0969696 83.30354309 C-104.99192879 83.1219392 -125.5273532 77.75681754 -140 65 C-147.63736842 54.75694117 -145.80667111 40.47898476 -144.2109375 28.50390625 C-143.88101029 26.29256792 -143.53996567 24.08285804 -143.1875 21.875 C-143.0222583 20.8331958 -142.8570166 19.7913916 -142.68676758 18.71801758 C-141.6360837 12.56471836 -140.12900968 6.86850233 -138 1 C-130.32398417 0.65908812 -122.93615362 2.19986005 -115.39453125 3.49023438 C-99.42771711 6.09454866 -83.38919682 6.20707497 -67.25 6.1875 C-66.32457397 6.18689575 -65.39914795 6.1862915 -64.44567871 6.18566895 C-44.12215099 6.14967013 -24.96602169 4.33326661 -5.02685547 0.33544922 C-3 0 -3 0 0 0 Z " fill="#E71D62" transform="translate(325,326)"/>
<path d="M0 0 C4.26450145 16.98633351 4.17527934 35.1976893 4.375 52.625 C4.40094238 53.81448242 4.42688477 55.00396484 4.45361328 56.22949219 C4.47043943 64.1198365 3.74628873 71.82793691 -1.73999023 77.93774414 C-5.49795259 81.39628019 -9.07641614 83.96554699 -14.3203125 84.02734375 C-21.05842966 83.63512499 -25.26139964 81.94756987 -29.9453125 76.90625 C-32.55454651 73.21562243 -33.98931655 69.48761685 -35.5 65.25 C-35.80115723 64.41742676 -36.10231445 63.58485352 -36.41259766 62.72705078 C-42.12029313 46.5127744 -44.2031038 31.12842043 -44 14 C-43.18917969 13.81824219 -42.37835938 13.63648438 -41.54296875 13.44921875 C-38.02433721 12.65046072 -34.51187935 11.82791015 -31 11 C-29.63875 10.69255859 -29.63875 10.69255859 -28.25 10.37890625 C-19.57123598 8.24890471 -8.54285066 0 0 0 Z " fill="#3E50B3" transform="translate(329,411)"/>
<path d="M0 0 C7.13385249 4.33126758 11.89860188 10.38115587 14.72265625 18.2109375 C16.40126728 25.38775351 16.2115728 32.22695884 13.375 39 C13.64292471 42.32083772 13.64292471 42.32083772 15.375 45 C15.8460459 49.08239784 15.8856868 51.2501497 13.54101562 54.69287109 C8.91679457 58.06261885 4.93322921 57.71896951 -0.65625 57.6640625 C-1.7249231 57.66884613 -2.79359619 57.67362976 -3.89465332 57.67855835 C-6.15064977 57.68195581 -8.40669555 57.6727643 -10.66259766 57.65185547 C-14.11342264 57.6250898 -17.5609948 57.65161071 -21.01171875 57.68359375 C-23.20573634 57.68028963 -25.3997519 57.67388335 -27.59375 57.6640625 C-28.62407349 57.67418365 -29.65439697 57.68430481 -30.71594238 57.69473267 C-35.47406056 57.61698077 -37.86750935 57.5564211 -41.78710938 54.67724609 C-44.19089314 51.17566629 -44.14673317 49.17386534 -43.625 45 C-43.25375 44.13375 -42.8825 43.2675 -42.5 42.375 C-41.32410732 40.01240093 -41.32410732 40.01240093 -42.55078125 37.7734375 C-45.27465022 30.74090306 -44.58195386 21.07533359 -41.78515625 14.08984375 C-38.06690897 7.3919909 -32.69592631 1.9373738 -25.66015625 -1.18359375 C-17.43819938 -3.39516259 -7.84769657 -3.5278636 0 0 Z " fill="#020202" transform="translate(325.625,233)"/>
<path d="M0 0 C7.80105867 4.26457874 12.08682745 9.41906497 15.9375 17.375 C16.4325 18.365 16.4325 18.365 16.9375 19.375 C17.06291286 21.95033857 17.12267756 24.48691813 17.125 27.0625 C17.13724609 27.75794922 17.14949219 28.45339844 17.16210938 29.16992188 C17.17248778 32.87501232 16.87245 35.59429225 15.80078125 39.20703125 C15.51589844 40.25246094 15.23101562 41.29789062 14.9375 42.375 C15.5975 43.365 16.2575 44.355 16.9375 45.375 C17.4732855 49.5082024 17.47963648 51.58296799 15.09960938 55.06005859 C10.47976341 58.44219104 6.49842919 58.09399603 0.90625 58.0390625 C-0.1624231 58.04384613 -1.23109619 58.04862976 -2.33215332 58.05355835 C-4.58814977 58.05695581 -6.84419555 58.0477643 -9.10009766 58.02685547 C-12.55092264 58.0000898 -15.9984948 58.02661071 -19.44921875 58.05859375 C-21.64323634 58.05528963 -23.8372519 58.04888335 -26.03125 58.0390625 C-27.06157349 58.04918365 -28.09189697 58.05930481 -29.15344238 58.06973267 C-33.90343775 57.9921135 -36.30581555 57.92802463 -40.22460938 55.06396484 C-42.59304622 51.59877311 -42.60591037 49.4893928 -42.0625 45.375 C-41.4025 44.715 -40.7425 44.055 -40.0625 43.375 C-40.40166995 40.18680248 -41.04843683 37.41718951 -42.0625 34.375 C-42.93576178 24.16785815 -41.74825783 15.73907757 -35.3125 7.5625 C-26.51556095 -1.90596111 -12.05830171 -5.03648304 0 0 Z " fill="#010101" transform="translate(213.0625,232.625)"/>
<path d="M0 0 C3.86752373 1.14980435 7.4280607 2.64810998 11.0625 4.375 C20.58983228 8.74545419 30.13096368 11.27633148 40.515625 12.60546875 C43 13 43 13 44 14 C45.34447104 33.85680299 41.5611005 60.37872178 30 77 C26.71988599 80.55274686 22.7500847 83.50891345 17.921875 84.37109375 C11.69432302 84.56150451 7.7887368 82.96346697 3 79 C-2.97607743 72.70939218 -3.30045793 66.97850333 -3.265625 58.6796875 C-3.26753845 57.66641388 -3.2694519 56.65314026 -3.27142334 55.60916138 C-3.27278377 53.4590022 -3.26909725 51.30883478 -3.26074219 49.15869141 C-3.25019636 45.93502249 -3.26056073 42.71193104 -3.2734375 39.48828125 C-3.29500141 6.59000282 -3.29500141 6.59000282 0 0 Z " fill="#3E50B3" transform="translate(183,411)"/>
<path d="M0 0 C30.43213397 9.09466073 55.26491109 26.57621169 70.546875 54.86328125 C76.84136225 67.65590092 77.46283851 80.24179145 77.33618164 94.2109375 C77.31254172 96.99508654 77.31564819 99.77827545 77.32226562 102.5625 C77.29038887 123.07765129 75.17199228 142.7635604 60.9375 158.6875 C51.71603631 167.2517547 39.85791421 171.54559362 28 175 C28 174.34 28 173.68 28 173 C29.45522837 171.89665062 30.96713422 170.8676691 32.5 169.875 C46.77811627 160.09408702 53.79720203 147.47342267 57.3515625 130.6953125 C58.63190796 123.39888593 59.16940974 116.1870832 59.23828125 108.78515625 C59.246353 107.93054306 59.25442474 107.07592987 59.26274109 106.19541931 C59.27648199 104.39454107 59.28724814 102.59363787 59.29516602 100.79272461 C59.30662021 98.98860795 59.32696643 97.1845234 59.35668945 95.38061523 C59.60685499 80.1316978 58.85850943 64.21800613 51.25 50.5625 C50.90638428 49.9132959 50.56276855 49.2640918 50.20874023 48.59521484 C39.50128203 28.87749518 21.43468891 9.89491304 0 2 C0 1.34 0 0.68 0 0 Z " fill="#DDC29A" transform="translate(298,134)"/>
<path d="M0 0 C3.2506852 1.23835627 6.430695 2.62353133 9.625 4 C9.24408203 5.51013672 9.24408203 5.51013672 8.85546875 7.05078125 C3.98704128 26.74049645 2.05498902 45.70974448 1.625 66 C0.07144654 66.66505116 -1.48679913 67.31914651 -3.046875 67.96875 C-3.9140918 68.33419922 -4.78130859 68.69964844 -5.67480469 69.07617188 C-11.26468 70.98865724 -16.25640203 70.87941802 -21.6875 68.625 C-27.1426493 63.29671464 -30.45917473 55.67988493 -30.75 48.0625 C-30.50271398 30.93232275 -15.83911924 14.08313692 -4.7578125 2.19140625 C-2.375 0 -2.375 0 0 0 Z " fill="#9A26AC" transform="translate(161.375,317)"/>
<path d="M0 0 C1.87258459 1.68385166 3.51797596 3.32060688 5.1875 5.1875 C5.66727295 5.71923828 6.1470459 6.25097656 6.64135742 6.79882812 C16.60538916 18.15238489 27.50896647 33.60094234 27.34765625 49.1328125 C26.57695501 55.48893288 24.26675183 61.91473066 19.51171875 66.2890625 C16.11371151 68.60372373 13.40529509 69.19095142 9.375 69.3125 C8.57835937 69.34988281 7.78171875 69.38726562 6.9609375 69.42578125 C2.61057743 68.80020177 -1.06977993 66.9079628 -5 65 C-5.01458252 64.27635254 -5.02916504 63.55270508 -5.04418945 62.80712891 C-5.50991517 42.0420157 -7.98844555 23.09709653 -13 3 C-11.5903653 2.29819469 -10.17192359 1.61406042 -8.75 0.9375 C-7.96109375 0.55464844 -7.1721875 0.17179687 -6.359375 -0.22265625 C-3.5712673 -1.14125465 -2.65373096 -1.23738515 0 0 Z " fill="#681A97" transform="translate(354,318)"/>
<path d="M0 0 C4.26450145 16.98633351 4.17527934 35.1976893 4.375 52.625 C4.40094238 53.81448242 4.42688477 55.00396484 4.45361328 56.22949219 C4.47043943 64.1198365 3.74628873 71.82793691 -1.73999023 77.93774414 C-4.77895014 80.7345663 -7.92093699 83.14624263 -12 84 C-15.36309686 83.84949104 -18.66890199 83.47864321 -22 83 C-21.1028125 82.01 -21.1028125 82.01 -20.1875 81 C-15.0292974 73.92589357 -14.5664834 67.39704431 -14.671875 58.921875 C-14.67374817 57.87404846 -14.67562134 56.82622192 -14.67755127 55.74664307 C-14.68424695 53.53793132 -14.69811165 51.32923094 -14.71875 49.12060547 C-14.74977471 45.77429918 -14.75971692 42.42846693 -14.765625 39.08203125 C-14.77480269 36.92447354 -14.78518087 34.76692054 -14.796875 32.609375 C-14.80112488 31.62459167 -14.80537476 30.63980835 -14.80975342 29.62518311 C-14.03872544 17.44271079 -14.03872544 17.44271079 -18 7 C-16.77023437 6.49339844 -16.77023437 6.49339844 -15.515625 5.9765625 C-14.43796875 5.53054688 -13.3603125 5.08453125 -12.25 4.625 C-11.18265625 4.18414062 -10.1153125 3.74328125 -9.015625 3.2890625 C-7.23079267 2.52611604 -5.46088172 1.72300475 -3.734375 0.8359375 C-2 0 -2 0 0 0 Z " fill="#273490" transform="translate(329,411)"/>
<path d="M0 0 C4.46709428 14.30830707 7.2454908 28.02144567 7.375 43.0625 C7.38885742 44.02599365 7.40271484 44.9894873 7.41699219 45.98217773 C7.36258214 54.20167526 5.92594528 60.96935604 0 67 C-8.43221832 72.87362964 -18.03748441 77.424943 -28 80 C-28.66 79.67 -29.32 79.34 -30 79 C-29.34773438 78.5875 -28.69546875 78.175 -28.0234375 77.75 C-19.43801087 72.07703373 -13.69804647 66.18273703 -11 56 C-10.61698826 52.63330943 -10.61933034 49.3223259 -10.6875 45.9375 C-10.6980542 45.01501465 -10.7086084 44.0925293 -10.71948242 43.14208984 C-10.96852377 30.17165606 -13.30751915 17.65466 -16 5 C-17.65 4.67 -19.3 4.34 -21 4 C-21 3.67 -21 3.34 -21 3 C-18.06298109 2.49702428 -15.12544669 1.99750127 -12.1875 1.5 C-11.35412109 1.35691406 -10.52074219 1.21382813 -9.66210938 1.06640625 C-8.45844727 0.86337891 -8.45844727 0.86337891 -7.23046875 0.65625 C-6.12288208 0.46772461 -6.12288208 0.46772461 -4.99291992 0.27539062 C-3 0 -3 0 0 0 Z " fill="#AA1355" transform="translate(325,326)"/>
<path d="M0 0 C2.86314748 1.99175477 4.5961805 3.49402654 5.51953125 6.9375 C5.83019003 10.75210084 5.83019003 10.75210084 5 13 C0.97404174 16.69875491 -3.12136625 19.34353398 -8.04296875 21.734375 C-8.69324539 22.05786926 -9.34352203 22.38136353 -10.01350403 22.71466064 C-12.06784827 23.73403239 -14.12760159 24.74190808 -16.1875 25.75 C-17.58042415 26.44070887 -18.97300563 27.13210926 -20.36523438 27.82421875 C-21.69500326 28.48239598 -23.02507105 29.13996973 -24.35546875 29.796875 C-24.97737595 30.10413513 -25.59928314 30.41139526 -26.24003601 30.72796631 C-31.39738127 33.24967478 -35.19385014 34.50931139 -41 34 C-43.4375 32.5 -43.4375 32.5 -45 30 C-45.77403846 24.58173077 -45.77403846 24.58173077 -45 22 C-41.24191831 17.67370136 -37.32626339 15.28834093 -32.28515625 12.79296875 C-31.18511513 12.23758171 -31.18511513 12.23758171 -30.06285095 11.67097473 C-28.51973439 10.89554386 -26.97406875 10.12516701 -25.42602539 9.35961914 C-23.06522805 8.1888529 -20.71712855 6.99503776 -18.36914062 5.79882812 C-16.86268771 5.04545652 -15.35554818 4.29345599 -13.84765625 3.54296875 C-13.15060074 3.18679977 -12.45354523 2.8306308 -11.73536682 2.46366882 C-7.68503462 0.48633379 -4.61068831 -0.59396883 0 0 Z " fill="#7E572A" transform="translate(276,55)"/>
<path d="M0 0 C2.875 1.4375 2.875 1.4375 5 4 C5.71252614 7.13166733 5.92443785 9.91129002 5 13 C1.15623667 16.50873138 -3.07503166 18.78562465 -7.6796875 21.109375 C-8.77617111 21.66688446 -8.77617111 21.66688446 -9.89480591 22.23565674 C-11.43459744 23.01529438 -12.97604538 23.79166831 -14.51904297 24.56494141 C-16.86792425 25.74644086 -19.20529178 26.94886027 -21.54296875 28.15234375 C-23.04621496 28.91016488 -24.55010103 29.66671835 -26.0546875 30.421875 C-27.09252884 30.96083405 -27.09252884 30.96083405 -28.15133667 31.51068115 C-32.58804017 33.69845096 -35.94692941 34.50194512 -41 34 C-43.4375 32.5625 -43.4375 32.5625 -45 30 C-45.60718067 26.87817487 -45.87130174 24.07390924 -45 21 C-41.15037673 17.47841251 -36.90456314 15.21135848 -32.28515625 12.890625 C-31.5517955 12.51895203 -30.81843475 12.14727905 -30.06285095 11.76434326 C-28.51882589 10.98477089 -26.97318299 10.20839542 -25.42602539 9.43505859 C-23.06692342 8.25221788 -20.71809456 7.05049748 -18.36914062 5.84765625 C-16.86256954 5.0899708 -15.35542646 4.3334214 -13.84765625 3.578125 C-13.15060074 3.21881897 -12.45354523 2.85951294 -11.73536682 2.48931885 C-7.66888958 0.48433828 -4.63913907 -0.54077663 0 0 Z " fill="#9D502C" transform="translate(276,17)"/>
<path d="M0 0 C8.19847474 3.30115576 12.58720858 13.7286284 16.375 21.25 C16.87531738 22.2412085 16.87531738 22.2412085 17.38574219 23.25244141 C21.85803724 32.43374599 23.93152139 41.60791482 20.9140625 51.59375 C19.42811617 55.47610687 17.85943041 59.28113919 16 63 C12.63672037 62.43945339 10.00887781 61.58158962 7 60 C6.98541748 59.27635254 6.97083496 58.55270508 6.95581055 57.80712891 C6.55067931 39.7437155 5.34330933 22.75945095 0.55078125 5.28515625 C0 3 0 3 0 0 Z " fill="#9926AD" transform="translate(342,323)"/>
<path d="M0 0 C1.04091797 0.00580078 2.08183594 0.01160156 3.15429688 0.01757812 C11.91984548 0.15850334 11.91984548 0.15850334 15.4375 2.4375 C17.76286063 5.92554095 17.77207898 7.33890754 17.4375 11.4375 C16.57813137 14.01560589 16.00002147 15.08725968 13.68945312 16.52587891 C9.32829731 18.29133379 4.58115468 17.80677416 -0.0625 17.8125 C-1.63064453 17.84923828 -1.63064453 17.84923828 -3.23046875 17.88671875 C-4.74060547 17.89251953 -4.74060547 17.89251953 -6.28125 17.8984375 C-7.19841797 17.90665527 -8.11558594 17.91487305 -9.06054688 17.92333984 C-12.3155636 17.29126692 -13.48069643 15.95643538 -15.5625 13.4375 C-17.00680855 10.54888291 -16.93938506 8.64102299 -16.5625 5.4375 C-12.24824578 -0.96369281 -7.01514559 -0.22235701 0 0 Z " fill="#030001" transform="translate(255.5625,366.5625)"/>
<path d="M0 0 C3.2138627 1.60693135 5.16978419 2.94336169 7.375 5.75 C8.65569448 10.36050013 8.68940252 14.40348891 6.8125 18.75 C4.19672096 21.99717398 2.15458356 24.52615361 -2.078125 25.45703125 C-6.67823428 25.7934338 -9.41424163 25.14611956 -13 22.1875 C-16.36796432 19.03003345 -17.16491267 16.17690388 -17.3125 11.625 C-17.278872 8.17813029 -17.06607331 7.10708434 -15.1875 4.0625 C-10.31552649 -0.53107502 -6.44890644 -0.82241109 0 0 Z " fill="#3D4FB1" transform="translate(316,248)"/>
<path d="M0 0 C3.85544798 1.99657127 5.59805092 3.39707638 8 7 C8.61405598 11.2585181 8.47919235 14.95034057 6.6875 18.875 C3.12845425 23.35676131 1.14281739 24.75000464 -4.75 25.4375 C-9.22242033 25.4044322 -11.45245693 23.55752835 -14.65234375 20.60546875 C-17.58082355 17.11675803 -17.29422428 13.33980809 -17 9 C-13.69963943 0.41906253 -8.69789499 -1.26215511 0 0 Z " fill="#3D4FB1" transform="translate(205,248)"/>
<path d="M0 0 C2.5 1.5 2.5 1.5 4 4 C4.79065588 8.98113208 4.79065588 8.98113208 4 12 C0.25268648 16.19342227 -2.54354841 17.37452013 -8 18 C-10.68428385 18.08014588 -13.34049184 18.1170847 -16.0234375 18.09765625 C-16.76961334 18.0962413 -17.51578918 18.09482635 -18.28457642 18.09336853 C-20.64809318 18.08780874 -23.01151227 18.07526389 -25.375 18.0625 C-26.98567571 18.0574798 -28.59635291 18.0529178 -30.20703125 18.04882812 C-34.13805799 18.03785251 -38.06901248 18.02061596 -42 18 C-38.6835593 15.32546755 -35.1047674 13.35980121 -31.328125 11.42578125 C-30.68687683 11.09708542 -30.04562866 10.76838959 -29.38494873 10.42973328 C-28.03127623 9.73911613 -26.67636928 9.05091392 -25.3203125 8.36499023 C-23.94360651 7.66511058 -22.57050364 6.95809633 -21.20117188 6.24389648 C-19.20957189 5.20520713 -17.20805032 4.18846354 -15.203125 3.17578125 C-14.60075012 2.85708572 -13.99837524 2.5383902 -13.37774658 2.21003723 C-8.63454803 -0.1379266 -5.16854987 -0.40755956 0 0 Z " fill="#9D502C" transform="translate(277,94)"/>
</svg>
